<svg xmlns="http://www.w3.org/2000/svg" width="200" height="200" viewBox="0 0 200 200" fill="none"><metadata><rdf:RDF xmlns:rdf="http://www.w3.org/1999/02/22-rdf-syntax-ns#" xmlns:dc="http://purl.org/dc/elements/1.1/"><rdf:Description><dc:creator>RealFaviconGenerator</dc:creator><dc:source>https://realfavicongenerator.net</dc:source></rdf:Description></rdf:RDF></metadata><rect width="200" height="200" fill="white"></rect><path d="M15.459 88.4194C31.2532 81.3369 50.494 78.9198 66.6689 86.767C85.7371 96.4901 105.1 106.794 126.376 101.919C127.952 101.64 128.723 103.595 127.382 104.469C111.14 115.33 89.8463 122.53 70.751 114.816C52.1637 107.975 36.7813 93.4268 16.8184 93.6049C12.5733 93.5749 8.35009 94.125 4.14062 95.1684C3.49603 95.3352 3.16117 94.4406 3.74609 94.1225L5.21387 93.3354C8.63687 91.5228 12.0354 89.8807 15.459 88.4194Z" fill="#057499"></path><path d="M138.049 95.515C145.958 91.1825 156.205 89.2293 164.964 93.0258C175.508 97.6212 184.766 104.39 195.792 102.258C197.362 102.02 198.091 103.941 196.761 104.809C188.276 110.562 176.803 113.47 166.936 109.477C157.212 106.032 149.157 98.8349 139.11 98.9652C136.942 98.9878 134.785 99.3504 132.67 100.007C132.038 100.217 131.654 99.3576 132.208 98.9887L132.935 98.514C134.63 97.4194 136.327 96.417 138.049 95.515Z" fill="#46BAEB"></path></svg>